<svg width="7" height="14" viewBox="0 0 7 14" fill="none" xmlns="http://www.w3.org/2000/svg">
<path d="M6.50605 7.90637L6.86627 5.55706H4.61329V4.03472C4.5977 3.85941 4.62171 3.68284 4.68353 3.51806C4.74536 3.35328 4.84342 3.20449 4.97047 3.0827C5.09752 2.96091 5.25032 2.86923 5.41757 2.81443C5.58482 2.75963 5.76224 2.74311 5.93673 2.76609H6.96103V0.765271C6.35954 0.668792 5.7518 0.616445 5.14267 0.60865C4.72356 0.576669 4.30254 0.637261 3.90946 0.786133C3.51638 0.935004 3.16085 1.16851 2.86808 1.4701C2.5753 1.7717 2.35245 2.13399 2.2153 2.53132C2.07816 2.92864 2.03008 3.35127 2.07448 3.76925V5.55863H0.0125732V7.90793H2.07526V13.5838H4.61329V7.90637H6.50605Z" fill="black"/>
</svg>
