<svg width="12" height="12" viewBox="0 0 12 12" fill="none" xmlns="http://www.w3.org/2000/svg">
<path d="M5.70687 4.3947C5.3908 4.3947 5.08182 4.48842 4.81901 4.66403C4.5562 4.83963 4.35137 5.08922 4.23041 5.38124C4.10945 5.67325 4.07781 5.99458 4.13947 6.30458C4.20113 6.61459 4.35334 6.89934 4.57684 7.12284C4.80034 7.34634 5.08509 7.49855 5.3951 7.56021C5.7051 7.62187 6.02643 7.59023 6.31844 7.46927C6.61046 7.34831 6.86005 7.14348 7.03565 6.88067C7.21126 6.61786 7.30498 6.30888 7.30498 5.99281C7.30498 5.78294 7.26365 5.57513 7.18333 5.38124C7.10302 5.18735 6.98531 5.01117 6.83691 4.86277C6.68851 4.71437 6.51234 4.59666 6.31844 4.51635C6.12455 4.43603 5.91674 4.3947 5.70687 4.3947ZM5.70687 3.32929C6.23367 3.32929 6.74863 3.4855 7.18664 3.77817C7.62466 4.07084 7.96605 4.48683 8.16764 4.97352C8.36924 5.46022 8.42199 5.99576 8.31921 6.51243C8.21644 7.02911 7.96276 7.5037 7.59027 7.8762C7.21777 8.2487 6.74317 8.50237 6.2265 8.60515C5.70983 8.70792 5.17428 8.65517 4.68759 8.45358C4.20089 8.25198 3.78491 7.91059 3.49224 7.47258C3.19957 7.03457 3.04336 6.5196 3.04336 5.99281C3.04336 5.64303 3.11225 5.29668 3.2461 4.97352C3.37996 4.65037 3.57615 4.35675 3.82348 4.10942C4.32299 3.60991 5.00046 3.32929 5.70687 3.32929ZM9.16945 3.19611C9.16945 3.32781 9.13039 3.45655 9.05723 3.56606C8.98406 3.67556 8.88006 3.76091 8.75839 3.81131C8.63671 3.8617 8.50283 3.87489 8.37366 3.8492C8.24449 3.82351 8.12584 3.76009 8.03272 3.66696C7.93959 3.57384 7.87618 3.45519 7.85048 3.32602C7.82479 3.19685 7.83798 3.06297 7.88838 2.94129C7.93877 2.81962 8.02412 2.71562 8.13362 2.64246C8.24313 2.56929 8.37187 2.53023 8.50357 2.53023C8.59101 2.53023 8.6776 2.54746 8.75839 2.58092C8.83918 2.61438 8.91258 2.66343 8.97442 2.72527C9.03625 2.7871 9.0853 2.8605 9.11876 2.94129C9.15222 3.02208 9.16945 3.10867 9.16945 3.19611ZM5.70687 1.73118C4.3906 1.73118 4.1738 1.73118 3.56057 1.76215C3.23363 1.76647 2.90979 1.82616 2.60279 1.93869C2.38704 2.02222 2.19111 2.14986 2.02752 2.31345C1.86392 2.47704 1.73628 2.67298 1.65275 2.88873C1.54014 3.1957 1.48045 3.51956 1.47622 3.84651C1.44834 4.43496 1.44524 4.64014 1.44524 5.99281C1.44524 7.30908 1.44524 7.52588 1.47622 8.13911C1.48085 8.46577 1.54053 8.7893 1.65275 9.09612C1.73586 9.31198 1.86327 9.50805 2.02676 9.67167C2.19026 9.8353 2.38622 9.96287 2.60202 10.0462C2.90924 10.1589 3.23334 10.2189 3.56057 10.2235C4.14902 10.2513 4.35421 10.2544 5.70687 10.2544C7.02315 10.2544 7.23994 10.2544 7.85317 10.2235C8.17982 10.2187 8.50334 10.1591 8.81018 10.0469C9.02738 9.96662 9.22392 9.83886 9.38547 9.67295C9.55209 9.51183 9.68019 9.31518 9.76022 9.09766C9.8725 8.79033 9.93218 8.46628 9.93676 8.13911C9.96463 7.55066 9.96773 7.34547 9.96773 5.99281C9.96773 4.67653 9.96773 4.45974 9.93676 3.84651C9.93233 3.51958 9.87264 3.19575 9.76022 2.88873C9.67992 2.67134 9.55186 2.47474 9.38547 2.31344C9.22444 2.14672 9.02776 2.0186 8.81018 1.93869C8.50319 1.82613 8.17934 1.76644 7.8524 1.76215C7.26472 1.73428 7.05954 1.73118 5.70687 1.73118ZM5.70687 0.665771C7.154 0.665771 7.33286 0.671191 7.90273 0.697517C8.34462 0.706695 8.78179 0.790464 9.19577 0.945286C9.55151 1.07846 9.87369 1.28806 10.1396 1.55929C10.4111 1.82565 10.6211 2.14802 10.7552 2.50391C10.9098 2.91795 10.9936 3.35508 11.0029 3.79695C11.0277 4.3645 11.0347 4.54568 11.0347 5.99281C11.0347 7.43993 11.0293 7.61879 11.0029 8.18866C10.9935 8.63053 10.9097 9.06765 10.7552 9.48171C10.6185 9.8361 10.4092 10.158 10.1406 10.4265C9.87202 10.6951 9.55017 10.9045 9.19577 11.0411C8.78173 11.1957 8.3446 11.2795 7.90273 11.2889C7.33518 11.3137 7.154 11.3206 5.70687 11.3206C4.25975 11.3206 4.08089 11.3152 3.51102 11.2889C3.06915 11.2794 2.63203 11.1957 2.21797 11.0411C1.86401 10.9045 1.54256 10.6953 1.27427 10.427C1.00597 10.1587 0.796779 9.83722 0.660126 9.48326C0.505261 9.06928 0.421491 8.63211 0.412357 8.19021C0.386806 7.62034 0.379837 7.43993 0.379837 5.99281C0.379837 4.54568 0.385257 4.36682 0.411582 3.79695C0.420717 3.35506 0.504487 2.91788 0.659352 2.50391C0.796 2.14973 1.00527 1.82808 1.27371 1.55964C1.54214 1.29121 1.8638 1.08193 2.21797 0.945286C2.63195 0.790421 3.06912 0.706651 3.51102 0.697517C4.07857 0.67274 4.25975 0.665771 5.70687 0.665771Z" fill="black"/>
</svg>
