<svg width="12" height="10" viewBox="0 0 12 10" fill="none" xmlns="http://www.w3.org/2000/svg">
<path d="M11.586 1.61291C11.1792 1.79292 10.7478 1.91114 10.3061 1.96366C10.7729 1.68516 11.1222 1.24612 11.2887 0.728688C10.8516 0.988839 10.3731 1.17216 9.87407 1.27068C9.53861 0.912865 9.09443 0.675767 8.61045 0.596177C8.12647 0.516587 7.62975 0.598955 7.19737 0.830502C6.76498 1.06205 6.42111 1.42983 6.21909 1.87677C6.01708 2.32372 5.96822 2.82484 6.08011 3.30239C5.19432 3.2579 4.3278 3.02763 3.53678 2.62652C2.74577 2.22541 2.04795 1.66243 1.48864 0.974134C1.20373 1.46465 1.1164 2.04529 1.24442 2.59791C1.37243 3.15054 1.70618 3.63363 2.17774 3.94891C1.82483 3.93735 1.47977 3.84179 1.17118 3.67017V3.69805C1.17071 4.2119 1.34779 4.71014 1.67245 5.10845C1.9971 5.50676 2.4494 5.78067 2.9528 5.88383C2.62454 5.9728 2.28036 5.98604 1.94623 5.92255C2.08819 6.36556 2.36518 6.75306 2.7384 7.03076C3.11163 7.30846 3.56238 7.46243 4.0275 7.4711C3.56543 7.83406 3.03635 8.1024 2.47052 8.26076C1.90469 8.41913 1.31319 8.46442 0.729843 8.39404C1.74823 9.04884 2.93368 9.39641 4.14441 9.39519C4.97887 9.40096 5.80614 9.24078 6.57814 8.92397C7.35013 8.60716 8.05144 8.14003 8.64129 7.54975C9.23113 6.95947 9.69775 6.25782 10.014 5.48559C10.3302 4.71337 10.4898 3.88597 10.4834 3.05152C10.4834 2.95551 10.4834 2.85873 10.4765 2.76349C10.9116 2.44906 11.2873 2.05973 11.586 1.61369V1.61291Z" fill="black"/>
</svg>
